<?xml version="1.0" standalone="no"?>
<!DOCTYPE svg PUBLIC "-//W3C//DTD SVG 20010904//EN"
 "http://www.w3.org/TR/2001/REC-SVG-20010904/DTD/svg10.dtd">
<svg version="1.0" xmlns="http://www.w3.org/2000/svg"
 width="500.000000pt" height="500.000000pt" viewBox="0 0 500.000000 500.000000"
 preserveAspectRatio="xMidYMid meet">

<g transform="translate(0.000000,500.000000) scale(0.100000,-0.100000)"
fill="#000000" stroke="none">
<path d="M2360 3909 c-198 -18 -366 -66 -555 -158 -279 -137 -514 -359 -674
-639 l-50 -88 -64 -2 c-184 -5 -353 -150 -387 -333 -14 -72 -13 -624 1 -691
17 -81 65 -163 132 -224 72 -64 142 -94 247 -103 l75 -6 35 -65 c45 -82 84
-108 139 -92 93 28 108 95 48 209 -54 103 -102 234 -128 348 -33 145 -32 416
0 560 69 303 232 572 458 756 255 209 534 309 864 310 158 0 283 -19 414 -62
464 -154 805 -534 907 -1012 17 -80 22 -137 22 -267 1 -236 -32 -383 -134
-597 -101 -213 -203 -334 -338 -400 l-76 -38 -249 -3 -250 -3 -31 30 c-55 53
-88 61 -266 61 -175 0 -210 -8 -263 -58 -41 -39 -59 -79 -60 -131 -1 -57 14
-86 56 -108 29 -17 74 -18 542 -18 573 0 568 -1 716 76 161 84 276 211 380
422 l43 85 60 1 c64 0 156 27 211 61 90 55 167 175 185 287 13 77 13 596 0
663 -23 120 -107 238 -210 294 -55 30 -182 60 -216 52 -20 -5 -29 6 -75 86
-226 394 -604 675 -1034 768 -84 18 -314 42 -365 38 -8 0 -58 -5 -110 -9z"/>
<path d="M1856 3153 c-38 -11 -66 -31 -116 -81 -204 -206 -325 -531 -306 -827
14 -230 82 -407 172 -450 50 -23 122 -16 413 40 432 84 545 83 994 -6 245 -49
369 -56 414 -23 41 30 90 135 115 244 18 78 22 125 22 260 -1 146 -4 177 -27
264 -34 128 -118 300 -194 401 -106 139 -164 180 -268 191 -60 6 -80 3 -395
-65 -54 -12 -131 -21 -180 -21 -82 1 -127 8 -385 64 -136 29 -189 31 -259 9z
m147 -484 c138 -38 190 -217 94 -326 -76 -87 -193 -97 -278 -25 -120 103 -97
277 46 343 46 21 84 23 138 8z m1125 -5 c76 -32 131 -111 132 -190 0 -50 -40
-133 -77 -160 -87 -64 -194 -56 -269 20 -74 73 -82 177 -21 259 58 77 153 106
235 71z"/>
</g>
</svg>
